<svg width="35" height="39" viewBox="0 0 35 39" xmlns="http://www.w3.org/2000/svg"><title>ic_assignment_24px</title><g fill="none" fill-rule="evenodd"><path d="M30.625 4.5h-7.837C22 2.325 19.938.75 17.5.75S13 2.325 12.212 4.5H4.375a3.761 3.761 0 0 0-3.75 3.75V34.5a3.761 3.761 0 0 0 3.75 3.75h26.25a3.761 3.761 0 0 0 3.75-3.75V8.25a3.761 3.761 0 0 0-3.75-3.75zM17.5 4.5a1.88 1.88 0 0 1 1.875 1.875A1.88 1.88 0 0 1 17.5 8.25a1.88 1.88 0 0 1-1.875-1.875A1.88 1.88 0 0 1 17.5 4.5zm3.75 26.25H8.125V27H21.25v3.75zm5.625-7.5H8.125V19.5h18.75v3.75zm0-7.5H8.125V12h18.75v3.75z" fill="#EBEEF2"/><path d="M-5-3h45v45H-5z"/></g></svg>