<?xml version="1.0" encoding="UTF-8" standalone="no"?>
<svg width="39px" height="39px" viewBox="0 0 39 39" version="1.1" xmlns="http://www.w3.org/2000/svg" xmlns:xlink="http://www.w3.org/1999/xlink">
    <!-- Generator: Sketch 40 (33762) - http://www.bohemiancoding.com/sketch -->
    <title>ic_alarm</title>
    <desc>Created with Sketch.</desc>
    <defs></defs>
    <g id="Page-1" stroke="none" stroke-width="1" fill="none" fill-rule="evenodd">
        <g id="ic_alarm" transform="translate(-3.000000, -3.000000)">
            <g id="Icon-24px">
                <polygon id="Shape" points="0 0 45 0 45 45 0 45"></polygon>
                <path d="M41.25,10.725 L32.625,3.4875 L30.20625,6.35625 L38.83125,13.59375 L41.25,10.725 L41.25,10.725 Z M14.775,6.35625 L12.375,3.4875 L3.75,10.70625 L6.16875,13.575 L14.775,6.35625 L14.775,6.35625 Z M23.4375,15 L20.625,15 L20.625,26.25 L29.53125,31.59375 L30.9375,29.2875 L23.4375,24.84375 L23.4375,15 L23.4375,15 Z M22.5,7.5 C13.18125,7.5 5.625,15.05625 5.625,24.375 C5.625,33.69375 13.1625,41.25 22.5,41.25 C31.81875,41.25 39.375,33.69375 39.375,24.375 C39.375,15.05625 31.81875,7.5 22.5,7.5 L22.5,7.5 Z M22.5,37.5 C15.24375,37.5 9.375,31.63125 9.375,24.375 C9.375,17.11875 15.24375,11.25 22.5,11.25 C29.75625,11.25 35.625,17.11875 35.625,24.375 C35.625,31.63125 29.75625,37.5 22.5,37.5 L22.5,37.5 Z" id="Shape" fill="#EBEEF2"></path>
            </g>
        </g>
    </g>
</svg>