<?xml version="1.0" encoding="UTF-8" standalone="no"?>
<svg width="31px" height="35px" viewBox="0 0 31 35" version="1.1" xmlns="http://www.w3.org/2000/svg" xmlns:xlink="http://www.w3.org/1999/xlink">
    <!-- Generator: Sketch 40 (33762) - http://www.bohemiancoding.com/sketch -->
    <title>ic_theaters</title>
    <desc>Created with Sketch.</desc>
    <defs></defs>
    <g id="Page-1" stroke="none" stroke-width="1" fill="none" fill-rule="evenodd">
        <g id="ic_theaters" transform="translate(-7.000000, -5.000000)">
            <g id="Icon-24px">
                <path d="M33.75,5.625 L33.75,9.375 L30,9.375 L30,5.625 L15,5.625 L15,9.375 L11.25,9.375 L11.25,5.625 L7.5,5.625 L7.5,39.375 L11.25,39.375 L11.25,35.625 L15,35.625 L15,39.375 L30,39.375 L30,35.625 L33.75,35.625 L33.75,39.375 L37.5,39.375 L37.5,5.625 L33.75,5.625 L33.75,5.625 Z M15,31.875 L11.25,31.875 L11.25,28.125 L15,28.125 L15,31.875 L15,31.875 Z M15,24.375 L11.25,24.375 L11.25,20.625 L15,20.625 L15,24.375 L15,24.375 Z M15,16.875 L11.25,16.875 L11.25,13.125 L15,13.125 L15,16.875 L15,16.875 Z M33.75,31.875 L30,31.875 L30,28.125 L33.75,28.125 L33.75,31.875 L33.75,31.875 Z M33.75,24.375 L30,24.375 L30,20.625 L33.75,20.625 L33.75,24.375 L33.75,24.375 Z M33.75,16.875 L30,16.875 L30,13.125 L33.75,13.125 L33.75,16.875 L33.75,16.875 Z" id="Shape" fill="#EBEEF2"></path>
                <polygon id="Shape" points="0 0 45 0 45 45 0 45"></polygon>
            </g>
        </g>
    </g>
</svg>