<svg width="39" height="39" viewBox="0 0 39 39" xmlns="http://www.w3.org/2000/svg"><title>ic_alarm</title><g fill="none" fill-rule="evenodd"><path d="M-3-3h45v45H-3z"/><path d="M38.25 7.725L29.625.488l-2.419 2.868 8.625 7.238 2.419-2.869zM11.775 3.356L9.375.487.75 7.707l2.419 2.868 8.606-7.219zM20.437 12h-2.812v11.25l8.906 5.344 1.407-2.306-7.5-4.444V12zM19.5 4.5c-9.319 0-16.875 7.556-16.875 16.875 0 9.319 7.537 16.875 16.875 16.875 9.319 0 16.875-7.556 16.875-16.875C36.375 12.056 28.819 4.5 19.5 4.5zm0 30c-7.256 0-13.125-5.869-13.125-13.125S12.244 8.25 19.5 8.25s13.125 5.869 13.125 13.125S26.756 34.5 19.5 34.5z" fill="#EBEEF2"/></g></svg>